<svg width="33" height="23" viewBox="0 0 33 23" fill="none" xmlns="http://www.w3.org/2000/svg">
<path fill-rule="evenodd" clip-rule="evenodd" d="M3.12929 0.745728H5.96922H21.6212H24.4611C25.6345 0.745728 26.5944 1.70533 26.5944 2.87905V5.01235H27.6609C28.8346 5.01235 29.7942 5.97191 29.7942 7.14525V9.27893H30.8606C32.0344 9.27893 32.9943 10.2385 32.9943 11.4122V20.8112C32.9943 21.9846 32.0344 22.9441 30.8606 22.9441H9.52878C8.35545 22.9441 7.39588 21.9846 7.39588 20.8112V18.6775H6.32904C5.15532 18.6775 4.19577 17.7179 4.19577 16.5446V14.4109H3.12929C1.95557 14.4109 0.995605 13.4513 0.995605 12.278V9.43773V5.71895V2.87905C0.995605 1.70533 1.95557 0.745728 3.12929 0.745728ZM13.795 3.37883C14.9518 3.37883 16.001 3.8494 16.7626 4.61099C17.5246 5.36873 17.9947 6.41904 17.9947 7.57853C17.9947 8.73495 17.5238 9.78449 16.7626 10.5461C16.0048 11.3081 14.9545 11.7782 13.795 11.7782C12.6355 11.7782 11.5852 11.3081 10.8256 10.548C10.0663 9.78449 9.59534 8.73495 9.59534 7.57853C9.59534 6.41904 10.0655 5.36873 10.8256 4.60868C11.5852 3.84901 12.6355 3.37883 13.795 3.37883ZM15.3509 6.01882C14.9557 5.6236 14.4055 5.37871 13.795 5.37871C13.1876 5.37871 12.637 5.62514 12.2391 6.02266C11.8416 6.42018 11.5952 6.97072 11.5952 7.57853C11.5952 8.18865 11.8401 8.7388 12.2357 9.13401H12.2391C12.637 9.53192 13.1876 9.77796 13.795 9.77796C14.4024 9.77796 14.953 9.53192 15.3509 9.13401H15.3544C15.75 8.7388 15.9948 8.18865 15.9948 7.57853C15.9948 6.97072 15.7484 6.42018 15.3509 6.02266V6.01882ZM29.7942 10.879V16.5446C29.7942 17.7179 28.8346 18.6775 27.6609 18.6775H8.99596V20.8112C8.99596 21.1046 9.23545 21.3441 9.52878 21.3441H30.8606C31.0056 21.3441 31.1394 21.2833 31.2363 21.1864L31.2393 21.1895C31.3347 21.0926 31.3942 20.9588 31.3942 20.8112V11.4122C31.3942 11.2646 31.3347 11.1308 31.2393 11.0339L31.2363 11.037C31.1394 10.9398 31.0056 10.879 30.8606 10.879H29.7942ZM26.5944 6.6124V9.43773V12.278C26.5944 13.4513 25.6345 14.4109 24.4611 14.4109H21.6212H5.96922H5.79579V16.5446C5.79579 16.8383 6.03532 17.0775 6.32904 17.0775H27.6609C27.8058 17.0775 27.9392 17.0167 28.0365 16.9198L28.0392 16.9225C28.1346 16.826 28.1945 16.6918 28.1945 16.5446V7.14525C28.1945 6.998 28.1346 6.86384 28.0392 6.76735L28.0365 6.77002C27.9392 6.67314 27.8058 6.6124 27.6609 6.6124H26.5944ZM24.9944 6.0788C22.933 6.0788 21.2614 4.40722 21.2614 2.34581H6.32867C6.32867 4.40722 4.65748 6.0788 2.59569 6.0788V9.07788C4.65748 9.07788 6.32867 10.7498 6.32867 12.8109H21.2614C21.2614 10.7498 22.933 9.07788 24.9944 9.07788V6.0788Z" fill="#208AD9"/>
</svg>
