<svg width="20" height="20" viewBox="0 0 20 20" fill="none" xmlns="http://www.w3.org/2000/svg">
<path opacity="0.9" d="M2.31633 9.01606H7.22869C7.09019 9.09625 6.95566 9.18353 6.82562 9.27757C6.38409 9.56321 5.97114 9.89326 5.59281 10.2629H2.31633C2.0223 10.2638 1.74029 10.3832 1.5306 10.5956C1.42577 10.7011 1.34228 10.827 1.28496 10.966C1.22765 11.1049 1.19763 11.2542 1.19666 11.4052V15.0031H14.7403V11.5688C14.844 11.521 14.9477 11.4878 15.0545 11.4384C15.3469 11.3051 15.6316 11.1546 15.9071 10.9875C15.93 11.1246 15.9416 11.2636 15.9416 11.4028V17.6133C15.9375 18.2453 15.6936 18.8506 15.262 19.2997C15.0477 19.5221 14.7927 19.6986 14.5117 19.8188C14.2308 19.939 13.9295 20.0006 13.6253 20H2.31633C2.01213 20.0006 1.71083 19.939 1.4299 19.8188C1.14896 19.6986 0.893955 19.5221 0.679654 19.2997C0.246201 18.8519 0.00193193 18.2458 0 17.6133L0 11.4028C0.00412498 10.7708 0.248063 10.1655 0.679654 9.71637C1.11428 9.26975 1.7025 9.01805 2.31633 9.01606ZM19.6023 5.8586C17.77 7.03415 17.7464 7.49724 16.6401 9.27838C16.2016 9.98747 15.543 10.5228 14.7717 10.7972C14.2357 11.0189 13.6799 11.186 13.1122 11.2959C12.5835 11.3973 12.0687 11.5648 11.5793 11.7946C11.2317 11.9747 10.8931 12.1728 10.5649 12.3881C9.8456 12.8781 9.06293 13.2613 8.23993 13.5264C7.34105 13.8114 6.25754 14.0372 5.61245 13.4551C4.77094 12.7071 5.40502 11.389 6.0501 10.7834C6.7907 10.0756 7.64453 9.50502 8.57386 9.09702C9.45457 8.71544 10.2219 8.10103 10.7983 7.31589L10.5217 7.06653L10.2145 6.77103L9.95753 6.48281C9.37371 6.68233 8.7651 6.79439 8.15035 6.81555C7.90667 7.28731 7.62934 7.73978 7.32063 8.16922L7.22869 8.24046H4.02214C4.60986 6.94509 5.22037 5.74687 5.84267 4.48793C5.97564 4.17206 6.18178 3.89462 6.44301 3.67993C6.70425 3.46524 7.01261 3.31986 7.34105 3.25652C8.0357 3.0233 8.74436 2.83697 9.46252 2.6987C11.2283 2.37973 12.9529 1.85385 14.6027 1.13131C15.1905 0.858469 15.7436 0.537864 16.3086 0.228595C16.5292 0.0599834 16.802 -0.0198153 17.0758 0.00418566C17.3495 0.0281867 17.6053 0.154336 17.7952 0.358941C18.9549 1.50861 19.7231 3.01371 19.985 4.64986C20.0133 4.87981 20.0015 5.11311 19.9504 5.33883C19.8718 5.66267 19.8718 5.69506 19.6047 5.86103L19.6023 5.8586ZM14.7403 17.2449H1.19823V17.6133C1.1969 17.7646 1.22587 17.9146 1.28332 18.0539C1.34078 18.1932 1.42549 18.3188 1.53217 18.4229V18.435C1.63537 18.5411 1.75793 18.6252 1.89278 18.6823C2.02762 18.7394 2.1721 18.7684 2.3179 18.7678H13.6222C13.768 18.7684 13.9124 18.7394 14.0473 18.6823C14.1821 18.6252 14.3047 18.5411 14.4079 18.435V18.4229C14.5146 18.3188 14.5993 18.1932 14.6567 18.0539C14.7142 17.9146 14.7432 17.7646 14.7418 17.6133V17.2449H14.7403Z" fill="white"/>
</svg>
