<svg width="19" height="19" viewBox="0 0 19 19" fill="none" xmlns="http://www.w3.org/2000/svg">
<path fill-rule="evenodd" clip-rule="evenodd" d="M1.54427 18.3096C6.87771 18.3096 12.2104 18.3096 17.5434 18.3096C18.8663 18.3096 18.8667 16.3094 17.5434 16.3094H16.0433L16.0437 16.2771V2.31047C16.0437 1.75995 15.8188 1.25939 15.4566 0.89763C15.0949 0.53548 14.5943 0.310577 14.0438 0.310577H13.0438C12.4933 0.310577 11.9927 0.53548 11.631 0.89763C11.2688 1.25939 11.044 1.75995 11.044 2.31047V6.00348C10.7495 5.8324 10.4077 5.73437 10.0444 5.73437H9.04406C8.49391 5.73437 7.99336 5.95927 7.63121 6.32142C7.26906 6.68318 7.04415 7.18373 7.04415 7.73388V10.5792C6.74966 10.4081 6.40827 10.3101 6.04458 10.3101H5.04424C4.4941 10.3101 3.99354 10.535 3.63139 10.8971C3.26963 11.2589 3.04433 11.7594 3.04433 12.3096V16.3094H1.54427C0.221381 16.3094 0.221765 18.3096 1.54427 18.3096ZM15.0429 16.3094H12.0447L12.0439 16.2771V7.73388V2.31047C12.0439 2.03598 12.1569 1.78571 12.338 1.60463C12.5191 1.42317 12.7689 1.31053 13.0438 1.31053H14.0438C14.3187 1.31053 14.5685 1.42317 14.7496 1.60463C14.9307 1.78571 15.0437 2.03598 15.0437 2.31047V16.2771L15.0429 16.3094ZM11.044 16.3094H8.04407V12.3096V7.73388C8.04407 7.45977 8.1571 7.20949 8.33817 7.02842C8.51925 6.84696 8.76956 6.73431 9.04406 6.73431H10.0444C10.3189 6.73431 10.5688 6.84696 10.7499 7.02842C10.9282 7.20642 11.0405 7.45169 11.044 7.72119V7.73388V16.2771V16.3094ZM7.04415 16.3094H4.04432V12.3096C4.04432 12.0355 4.15734 11.7852 4.33842 11.6041C4.51949 11.4227 4.76974 11.31 5.04424 11.31H6.04458C6.31908 11.31 6.56895 11.4227 6.75041 11.6041C6.92841 11.7821 7.04069 12.0274 7.04415 12.2969V16.3094Z" fill="black"/>
</svg>
